<?xml version="1.0" encoding="UTF-8" standalone="no"?>
<svg
   xmlns:dc="http://purl.org/dc/elements/1.1/"
   xmlns:cc="http://creativecommons.org/ns#"
   xmlns:rdf="http://www.w3.org/1999/02/22-rdf-syntax-ns#"
   xmlns:svg="http://www.w3.org/2000/svg"
   xmlns="http://www.w3.org/2000/svg"
   xmlns:sodipodi="http://sodipodi.sourceforge.net/DTD/sodipodi-0.dtd"
   xmlns:inkscape="http://www.inkscape.org/namespaces/inkscape"
   height="512px"
   id="Layer_1"
   style="enable-background:new 0 0 512 512;"
   version="1.1"
   viewBox="0 0 512 512"
   width="512px"
   xml:space="preserve"
   sodipodi:docname="photos.svg"
   inkscape:version="0.92.4 (5da689c313, 2019-01-14)"><metadata
     id="metadata13"><rdf:RDF><cc:Work
         rdf:about=""><dc:format>image/svg+xml</dc:format><dc:type
           rdf:resource="http://purl.org/dc/dcmitype/StillImage" /><dc:title></dc:title></cc:Work></rdf:RDF></metadata><defs
     id="defs11" /><sodipodi:namedview
     pagecolor="#ffffff"
     bordercolor="#666666"
     borderopacity="1"
     objecttolerance="10"
     gridtolerance="10"
     guidetolerance="10"
     inkscape:pageopacity="0"
     inkscape:pageshadow="2"
     inkscape:window-width="1822"
     inkscape:window-height="1051"
     id="namedview9"
     showgrid="false"
     inkscape:zoom="0.4609375"
     inkscape:cx="259.25424"
     inkscape:cy="256"
     inkscape:window-x="89"
     inkscape:window-y="-9"
     inkscape:window-maximized="1"
     inkscape:current-layer="Layer_1" /><g
     id="g6"
     style="fill:#000000;fill-opacity:0.3764706"><path
       d="m 368,224 c 26.5,0 48,-21.5 48,-48 0,-26.5 -21.5,-48 -48,-48 -26.5,0 -48,21.5 -48,48 0,26.5 21.5,48 48,48 z"
       id="path2"
       inkscape:connector-curvature="0"
       style="fill:#000000;fill-opacity:0.3764706" /><path
       d="M 452,64 H 60 C 44.4,64 32,76.7 32,92.3 v 327.4 c 0,15.6 12.4,28.3 28,28.3 h 392 c 15.6,0 28,-12.7 28,-28.3 V 92.3 C 480,76.7 467.6,64 452,64 Z M 348.9,261.7 c -3,-3.5 -7.6,-6.2 -12.8,-6.2 -5.1,0 -8.7,2.4 -12.8,5.7 L 304.6,277 c -3.9,2.8 -7,4.7 -11.5,4.7 -4.3,0 -8.2,-1.6 -11,-4.1 -1,-0.9 -2.8,-2.6 -4.3,-4.1 L 224,215.3 c -4,-4.6 -10,-7.5 -16.7,-7.5 -6.7,0 -12.9,3.3 -16.8,7.8 L 64,368.2 V 107.7 C 65,100.9 70.3,96 77.1,96 h 357.7 c 6.9,0 12.5,5.1 12.9,12 l 0.3,260.4 z"
       id="path4"
       inkscape:connector-curvature="0"
       style="fill:#000000;fill-opacity:0.3764706" /></g></svg>