<?xml version="1.0" encoding="UTF-8" standalone="no"?>
<svg
   xmlns:dc="http://purl.org/dc/elements/1.1/"
   xmlns:cc="http://creativecommons.org/ns#"
   xmlns:rdf="http://www.w3.org/1999/02/22-rdf-syntax-ns#"
   xmlns:svg="http://www.w3.org/2000/svg"
   xmlns="http://www.w3.org/2000/svg"
   xmlns:sodipodi="http://sodipodi.sourceforge.net/DTD/sodipodi-0.dtd"
   xmlns:inkscape="http://www.inkscape.org/namespaces/inkscape"
   id="Layer_1"
   version="1.1"
   viewBox="0 0 512 512"
   xml:space="preserve"
   sodipodi:docname="trash.svg"
   inkscape:version="0.92.4 (5da689c313, 2019-01-14)"
   style="enable-background:new 0 0 512 512;"><metadata
     id="metadata839"><rdf:RDF><cc:Work
         rdf:about=""><dc:format>image/svg+xml</dc:format><dc:type
           rdf:resource="http://purl.org/dc/dcmitype/StillImage" /><dc:title /></cc:Work></rdf:RDF></metadata><defs
     id="defs837" /><sodipodi:namedview
     pagecolor="#ffffff"
     bordercolor="#666666"
     borderopacity="1"
     objecttolerance="10"
     gridtolerance="10"
     guidetolerance="10"
     inkscape:pageopacity="0"
     inkscape:pageshadow="2"
     inkscape:window-width="1822"
     inkscape:window-height="1051"
     id="namedview835"
     showgrid="false"
     inkscape:zoom="1.1849563"
     inkscape:cx="30.457477"
     inkscape:cy="253.40054"
     inkscape:window-x="89"
     inkscape:window-y="-9"
     inkscape:window-maximized="1"
     inkscape:current-layer="Layer_1" /><g
     id="g832"
     style="fill:#000000;fill-opacity:0.37810944"
     transform="matrix(1.0027845,0,0,0.7690817,2.3464935,60.30252)"><path
       d="m 89.4,100 26.2,347.9 c 2.5,32.5 29.6,58.1 60.7,58.1 h 159.3 c 31.1,0 58.2,-25.6 60.7,-58.1 L 422.6,100 Z m 100.7,360.8 c 0.3,7.1 -5.1,12.7 -12,12.7 -6.9,0 -12.7,-5.7 -13.1,-12.7 L 150.4,164.2 c -0.5,-9.6 5.7,-17.4 13.8,-17.4 8.1,0 14.9,7.8 15.3,17.4 z m 78.4,0 c 0,7.1 -5.7,12.7 -12.5,12.7 -6.8,0 -12.5,-5.7 -12.5,-12.7 l -2,-296.6 c -0.1,-9.6 6.4,-17.4 14.5,-17.4 8.1,0 14.6,7.8 14.5,17.4 z m 78.4,0 c -0.3,7.1 -6.2,12.7 -13.1,12.7 -6.9,0 -12.2,-5.7 -12,-12.7 l 10.6,-296.6 c 0.3,-9.6 7.2,-17.4 15.3,-17.4 8.1,0 14.3,7.8 13.8,17.4 z"
       id="path828"
       style="fill:#000000;fill-opacity:0.37810944"
       inkscape:connector-curvature="0" /><path
       d="M 445.3,82.8 H 66.7 v 0 C 64.9,61.7 77.4,44.4 94.6,44.4 h 322.9 c 17.1,0 29.6,17.4 27.8,38.4 z"
       id="XMLID_2_"
       style="fill:#000000;fill-opacity:0.37810944"
       inkscape:connector-curvature="0" /><path
       d="m 324.44918,44.427506 h -136.6 l -0.2,-5.853232 c -0.8,-18.385152 14.6,-33.618563 34.4,-33.618563 h 68.3 c 19.7,0 35.1,15.233411 34.4,33.543521 z"
       id="XMLID_1_"
       style="fill:#000000;fill-opacity:0.37810944;stroke-width:0.86626458"
       inkscape:connector-curvature="0" /></g></svg>